<svg class="mobile-hidden" xmlns="http://www.w3.org/2000/svg" fill="gray" viewBox="0 0 86 26" height="20px"><title>Carryology</title>
									<path d="M11.662 20.238c-.292 2.261-1.574 3.895-3.69 4.875-1.971.913-3.648.162-5.12-1.214-1.25-1.169-1.83-2.706-1.989-4.33-.359-3.669.402-7.121 2.386-10.266.998-1.583 2.396-2.694 4.198-3.147 1.571-.394 3.127-.224 4.1 1.29.986 1.534 1.123 3.224.288 4.871-.49.966-1.402 1.258-2.4.811-1.221-.547-.524-1.218-.173-2.028.466-1.077.86-2.587-.256-3.292-1.401-.885-2.402.451-3.076 1.5-2.285 3.556-2.73 7.531-1.935 11.564.577 2.927 2.941 3.438 5.125 1.299.707-.693 1.286-1.516 1.923-2.28l.619.347zM83.944 3.352c-.836.114-1.424.398-1.124 1.512.458 1.701-.454 3.133-1.177 4.569-.264.525-.633 1.261-1.263 1.064-.758-.237-.689-1.089-.587-1.772.139-.925.401-1.836.481-2.764.069-.807.269-1.848-1.005-1.942-1.381-.102-1.284.765-1.235 1.821.089 1.93-.467 3.641-2.682 4.721.148-1.774.195-3.303.425-4.804.182-1.19-.222-1.391-1.236-1.051-.371.125-.569.839-1.022.491-2.156-1.658-3.384.071-4.834 1.205-.984.77-1.821 1.473-3.116-.03-1.443-1.675-3.531-1.066-4.515 1.025-.392.834-.773 1.772-.781 2.667-.018 1.83-.974 2.73-2.784 3.452.138-1.502.213-2.765.379-4.017l1.014-7.08c.112-.847.202-1.923-1.004-1.933-1.135-.009-1.739.549-1.529 1.992.203 1.397-.081 2.884-.274 4.315-.27 1.998-1.879 2.626-3.492 1.429-1.858-1.379-3.87-.924-4.863 1.145-.766 1.596-.942 3.268-.335 4.962.78 2.176 2.986 2.712 4.69 1.127.906-.843 1.403-1.927 1.489-3.164.083-1.197.699-1.851 1.971-2.061 0 .548-.018 1.05.004 1.549.053 1.209-.914 2.742.502 3.531 1.457.812 2.471-.596 3.527-1.373.537-.395.8-.835 1.677-.263 2.314 1.512 3.972.852 5.163-1.744.365-.795.307-1.949 1.775-2.064.156 1.021.266 2.092 1.006 2.962.884 1.041 2.036.616 3.345.545l-1.039 1.196c-2.392 2.791-2.759 4.667-1.279 6.813.586.849 1.264 1.702 2.448 1.577 1.267-.134 1.54-1.237 1.801-2.211.555-2.074.506-4.219.646-6.345.163-2.471 1.771-3.351 3.847-2.172.953.541 1.801.266 2.668-.158 1.31.143.807.969.629 1.672-.161 1.61-.315 3.221-.484 4.83-.099.939.37 1.518 1.233 1.619.698.082 1.127-.511 1.13-1.134.028-4.861.358-9.694 1.074-14.504.111-.75-.395-1.323-1.264-1.205zM50.69 9.053c.322.014.63.153.671.693-.042.435-.512.44-.879.442-.276.002-.798-.222-.789-.301.057-.553.439-.859.997-.834zm.852 3.659c-.113.956-.416 1.965-1.558 1.93-.916-.028-1.006-.967-1.08-1.736-.127-1.314.818-.937 1.304-.908.861-.206 1.442-.195 1.334.714zm12.183-5.527c.5-.099.882.28.862.685-.02.43-.502.618-.947.669-.333.034-.747.067-.801-.34-.081-.601.366-.912.886-1.014zm1.018 3.792c-.102.852-.438 1.606-1.397 1.849-1.009-.098-1.092-.838-1.174-1.615-.102-.97.455-1.126 1.22-1.053.58.057 1.491-.345 1.351.819zm7.45 9.98c-1.412-2.121-.767-3.608.627-5.428.286 2.022.128 3.55-.627 5.428zm-.825-9.397c-1.336-.013-.923-1.348-1.164-1.987.126-1.459.187-3.25 1.5-3.35 1.288-.098 1.684 1.72 1.707 2.887.023 1.176-.605 2.464-2.043 2.45zm-9.402 5.41c-5.053.776-10.1 1.593-15.134 2.487-1.267.225-1.635-.011-1.593-1.339.083-2.652.407-5.269.786-7.886.133-.917.093-1.839-1.129-1.805-.958.026-1.503.431-1.166 1.664.432 1.581-.439 2.991-1.14 4.349-.285.552-.584 1.425-1.458 1.088-.676-.261-.465-1.041-.406-1.594.108-1.012.394-2.006.494-3.018.085-.863.076-1.83-1.191-1.8-1.137.027-1.188.643-1.123 1.71.152 2.505-.798 4.574-3.142 5.862-.755-1.024-.029-1.699.314-2.423.818-1.728.878-3.155-1.427-3.632-.366-.076-.635-.163-.74-.544-.266-.963-.653-1.966-1.884-1.449-1.158.485-1.32 1.555-1.188 2.787.237 2.201-1.477 5.206-3.343 6.12-.318-.853.248-1.469.554-2.146.767-1.697.935-3.173-1.395-3.681-.341-.074-.676-.072-.759-.492-.2-1.007-.596-1.982-1.819-1.494-1.154.46-1.364 1.537-1.253 2.781.214 2.398-1.14 4.183-2.532 6.45-.792-1.752-.393-2.993-.272-4.222.143-1.449-.703-2.472-1.818-3.019-1.101-.54-2.144.117-2.911 1.04-1.31 1.575-1.897 3.421-1.908 5.44-.014 2.632 1.31 3.358 3.596 2.064.551-.311.847-1.356 1.877-.507 1.576 1.299 2.729.277 3.517-1.075.768-1.317 1.365-2.741 1.943-4.156.334-.817.937-1.061 1.616-.812.878.321.276.972.12 1.487a7.998 7.998 0 0 1-.356.959c-.496 1.107-.606 2.221.451 3.014 1.145.859 2.259.395 3.259-.418 1.469-1.194 2.037-2.899 2.603-4.605.298-.897.576-2.055 1.822-1.546 1.304.533.147 1.429-.044 2.096-.337 1.177-.862 2.403.324 3.281 1.345.996 2.557.338 3.637-.694.363-.346.671-1.292 1.364-.552 1.277 1.365 2.67.855 4.035.205.405 2.255-.077 3.345-2.46 3.593-3.89.405-7.733 1.255-11.598 1.908-.789.133-1.749.348-1.602 1.267.196 1.224 1.208.507 1.867.395 3.78-.642 7.559-1.289 11.324-2.008 1.358-.259 2.421-.417 2.064 1.543-.159.87.175 1.615 1.133 1.631 1.108.018 1.111-.975 1.029-1.69-.221-1.925.799-2.434 2.472-2.714 6.267-1.046 12.514-2.213 19.016-3.379-1.467-1.34-3.009-.739-4.426-.521zm-43.858-1.7c-.107 1.577-.317 3.068-1.893 3.378-.884.174-.697-.979-.655-1.567.09-1.273.138-2.651 1.513-3.284.112-.05 1.465.596 1.035 1.473z"></path></svg>